# xmcd
#
# Track frame offsets:
# 150
# 19502
# 39460
# 52654
# 71365
# 93845
# 109998
# 124864
# 137718
# 158247
# 176568
# 191977
# 207956
# 232473
# 246942
# 265303
#
# Disc length: 3803 seconds
#
#
# Revision: 0
# Processed by: cddbd v1.5.2PL0 Copyright (c) Steve Scherf et al.
# Submitted via: FreeRIP 2.951 
#
DISCID=e40ed910
DTITLE=Varios - Itajaíba Mattana e Leo Souza
DYEAR=2001
DGENRE=Gauchesca
TTITLE0=Quando acorda meu Rio Grande
TTITLE1=Bailanta de rancho
TTITLE2=Pulinho dela
TTITLE3=Pé de meia
TTITLE4=Gato em tapera
TTITLE5=No balanço do bugio
TTITLE6=O tempo e a vida
TTITLE7=Tempos de gui
TTITLE8=Linda Porto Alegre
TTITLE9=Amanhecer na querencia
TTITLE10=Ilusões de baile
TTITLE11=Ninhos de amor
TTITLE12=Quarto centenário
TTITLE13=Tudo certo
TTITLE14=Vivencias de gaiteiro
TTITLE15=Rabo de galo -pout-pourri
EXTD=
EXTT0=
EXTT1=
EXTT2=
EXTT3=
EXTT4=
EXTT5=
EXTT6=
EXTT7=
EXTT8=
EXTT9=
EXTT10=
EXTT11=
EXTT12=
EXTT13=
EXTT14=
EXTT15=
PLAYORDER=
